<svg width="42" height="34" viewBox="0 0 42 34" fill="none" xmlns="http://www.w3.org/2000/svg">
<path fill-rule="evenodd" clip-rule="evenodd" d="M15.1308 19.8403L21.0003 24.104L26.6583 19.9571L39.341 33.2505C39.0071 33.3651 38.6504 33.4268 38.2791 33.4268H3.71328C3.25699 33.4268 2.82144 33.332 2.42115 33.1624L15.1308 19.8403ZM41.7365 8.91558V29.7536C41.7365 30.2979 41.6245 30.8135 41.4254 31.2784L28.9937 18.2472L41.7365 8.91558ZM0.255861 9.03236L12.7872 18.137L0.475709 31.0449C0.329896 30.632 0.255419 30.1946 0.255861 29.7536V9.03236ZM38.2791 0.375C40.1872 0.375 41.7365 2.01878 41.7365 4.04815V5.33938L20.992 20.5322L0.255861 5.46498V4.04815C0.255861 2.02098 1.80309 0.375 3.71328 0.375H38.2791Z" fill="#0056C6"/>
</svg>
