<svg width="36" height="34" viewBox="0 0 36 34" fill="none" xmlns="http://www.w3.org/2000/svg">
<path d="M20.1857 0.199296C21.4662 0.194675 22.7468 0.206776 24.027 0.235595L24.3675 0.247144C24.7606 0.260344 25.1484 0.276843 25.6169 0.296642C27.4841 0.37914 28.7581 0.65633 29.876 1.06387C31.0342 1.48295 32.0099 2.05053 32.9856 2.9679C33.8777 3.79222 34.5682 4.78935 35.009 5.88995C35.4424 6.94097 35.7372 8.14047 35.825 9.89602C35.846 10.3349 35.8636 10.7012 35.8776 11.0708L35.8882 11.3909C35.9193 12.594 35.9328 13.7975 35.9285 15.0009L35.9303 16.2318V18.3932C35.9346 19.5973 35.9211 20.8013 35.8899 22.005L35.8794 22.325C35.8653 22.6946 35.8478 23.0593 35.8267 23.4998C35.739 25.2553 35.4407 26.4532 35.009 27.5042C34.5696 28.606 33.879 29.6039 32.9856 30.4279C32.1081 31.2666 31.047 31.9158 29.876 32.3303C28.7581 32.7378 27.4841 33.015 25.6169 33.0975C25.1484 33.1173 24.7606 33.1338 24.3675 33.147L24.027 33.1569C22.7468 33.1863 21.4662 33.1989 20.1857 33.1949L18.8765 33.1965H16.5794C15.2988 33.2006 14.0182 33.1879 12.738 33.1586L12.3976 33.1487C11.981 33.1345 11.5645 33.118 11.1481 33.0992C9.28094 33.0167 8.00692 32.7362 6.88731 32.3303C5.71627 31.9167 4.65555 31.2674 3.77946 30.4279C2.88631 29.6034 2.19521 28.6057 1.75435 27.5042C1.3209 26.4532 1.02608 25.2553 0.938335 23.4998C0.918791 23.1083 0.901243 22.7167 0.88569 22.325L0.876915 22.005C0.844562 20.8013 0.829937 19.5973 0.833044 18.3932V15.0009C0.828146 13.7975 0.841016 12.594 0.871651 11.3909L0.883935 11.0708C0.897974 10.7012 0.915522 10.3349 0.936581 9.89602C1.02432 8.13882 1.31914 6.94262 1.75259 5.88995C2.19372 4.78881 2.88617 3.79196 3.78121 2.96955C4.6567 2.12932 5.71675 1.47895 6.88731 1.06387C8.00692 0.65633 9.27919 0.37914 11.1481 0.296642L12.3976 0.247144L12.738 0.238895C14.0176 0.208491 15.2976 0.19474 16.5777 0.197646L20.1857 0.199296ZM18.3817 8.44901C17.2191 8.43356 16.0648 8.6355 14.986 9.04311C13.9071 9.45071 12.9252 10.0559 12.0972 10.8234C11.2693 11.5909 10.6118 12.5055 10.1631 13.514C9.71435 14.5224 9.48326 15.6047 9.48326 16.6979C9.48326 17.7911 9.71435 18.8734 10.1631 19.8819C10.6118 20.8904 11.2693 21.8049 12.0972 22.5724C12.9252 23.34 13.9071 23.9451 14.986 24.3527C16.0648 24.7603 17.2191 24.9623 18.3817 24.9468C20.7087 24.9468 22.9405 24.0776 24.586 22.5305C26.2315 20.9834 27.156 18.885 27.156 16.6971C27.156 14.5091 26.2315 12.4108 24.586 10.8637C22.9405 9.31653 20.7087 8.44901 18.3817 8.44901ZM18.3817 11.7489C19.081 11.7368 19.7759 11.8558 20.4257 12.099C21.0756 12.3423 21.6673 12.7048 22.1665 13.1655C22.6657 13.6261 23.0622 14.1757 23.3329 14.7821C23.6036 15.3884 23.7431 16.0394 23.7432 16.6971C23.7433 17.3547 23.6041 18.0057 23.3336 18.6122C23.0631 19.2187 22.6667 19.7684 22.1678 20.2292C21.6688 20.69 21.0771 21.0527 20.4273 21.2961C19.7776 21.5396 19.0827 21.6588 18.3834 21.6469C16.9872 21.6469 15.6481 21.1254 14.6608 20.1971C13.6735 19.2689 13.1188 18.0099 13.1188 16.6971C13.1188 15.3843 13.6735 14.1253 14.6608 13.197C15.6481 12.2688 16.9872 11.7473 18.3834 11.7473L18.3817 11.7489ZM27.5947 5.9741C27.0285 5.9954 26.4931 6.22184 26.1006 6.60598C25.7081 6.99012 25.4888 7.50217 25.4888 8.03488C25.4888 8.56759 25.7081 9.07964 26.1006 9.46378C26.4931 9.84792 27.0285 10.0744 27.5947 10.0957C28.1764 10.0957 28.7344 9.87837 29.1458 9.49159C29.5571 9.10481 29.7883 8.58022 29.7883 8.03323C29.7883 7.48624 29.5571 6.96165 29.1458 6.57487C28.7344 6.18809 28.1764 5.9708 27.5947 5.9708V5.9741Z" fill="#0056C6"/>
</svg>
