<svg width="36" height="34" viewBox="0 0 36 34" fill="none" xmlns="http://www.w3.org/2000/svg">
<path d="M31.248 0.874023C32.2823 0.874023 33.2742 1.26135 34.0056 1.9508C34.737 2.64024 35.1479 3.57533 35.1479 4.55035V30.2847C35.1479 31.2597 34.737 32.1948 34.0056 32.8842C33.2742 33.5737 32.2823 33.961 31.248 33.961H3.94872C2.9144 33.961 1.92245 33.5737 1.19108 32.8842C0.459708 32.1948 0.0488281 31.2597 0.0488281 30.2847V4.55035C0.0488281 3.57533 0.459708 2.64024 1.19108 1.9508C1.92245 1.26135 2.9144 0.874023 3.94872 0.874023H31.248ZM30.273 29.3656V19.6233C30.273 18.034 29.6033 16.5098 28.4111 15.386C27.219 14.2622 25.6021 13.6309 23.9162 13.6309C22.2587 13.6309 20.3283 14.5867 19.3923 16.0205V13.9801H13.9519V29.3656H19.3923V20.3034C19.3923 18.888 20.6013 17.73 22.1027 17.73C22.8267 17.73 23.5211 18.0011 24.0331 18.4837C24.545 18.9663 24.8326 19.6209 24.8326 20.3034V29.3656H30.273ZM7.61462 11.0942C8.48344 11.0942 9.31668 10.7689 9.93104 10.1897C10.5454 9.6106 10.8905 8.82512 10.8905 8.0061C10.8905 6.29661 9.42807 4.8996 7.61462 4.8996C6.74062 4.8996 5.90242 5.22689 5.28441 5.80948C4.6664 6.39206 4.31921 7.18221 4.31921 8.0061C4.31921 9.71559 5.80117 11.0942 7.61462 11.0942ZM10.325 29.3656V13.9801H4.92369V29.3656H10.325Z" fill="#0056C6"/>
</svg>
