<svg width="38" height="36" viewBox="0 0 38 36" fill="none" xmlns="http://www.w3.org/2000/svg">
<path d="M19.2869 0.870117C16.8426 0.870117 14.4223 1.32396 12.164 2.20574C9.90577 3.08751 7.85387 4.37995 6.12548 6.00925C2.63485 9.29979 0.673828 13.7627 0.673828 18.4162C0.673828 26.1716 6.01579 32.7514 13.4052 35.085C14.3359 35.2254 14.6337 34.6815 14.6337 34.2077V31.2424C9.47783 32.2952 8.37966 28.8913 8.37966 28.8913C7.52346 26.8559 6.3136 26.312 6.3136 26.312C4.61981 25.2241 6.44389 25.2592 6.44389 25.2592C8.30521 25.382 9.2917 27.0665 9.2917 27.0665C10.911 29.7335 13.6472 28.9439 14.7081 28.5228C14.8756 27.3823 15.3596 26.6103 15.8807 26.1716C11.7486 25.733 7.41178 24.224 7.41178 17.5389C7.41178 15.5913 8.11908 14.0297 9.32893 12.7839C9.1428 12.3453 8.49134 10.5205 9.51506 8.15175C9.51506 8.15175 11.0786 7.67801 14.6337 9.94146C16.1041 9.55544 17.7048 9.36244 19.2869 9.36244C20.8691 9.36244 22.4698 9.55544 23.9402 9.94146C27.4953 7.67801 29.0588 8.15175 29.0588 8.15175C30.0826 10.5205 29.4311 12.3453 29.245 12.7839C30.4548 14.0297 31.1621 15.5913 31.1621 17.5389C31.1621 24.2415 26.8066 25.7154 22.6559 26.1541C23.326 26.698 23.9402 27.7683 23.9402 29.4001V34.2077C23.9402 34.6815 24.238 35.243 25.1873 35.085C32.5767 32.7339 37.9001 26.1716 37.9001 18.4162C37.9001 16.112 37.4186 13.8304 36.4832 11.7016C35.5478 9.57283 34.1768 7.63856 32.4484 6.00925C30.72 4.37995 28.6681 3.08751 26.4099 2.20574C24.1516 1.32396 21.7313 0.870117 19.2869 0.870117Z" fill="#0056C6"/>
</svg>
